<svg width="24" height="24" viewBox="0 0 24 24" fill="none" xmlns="http://www.w3.org/2000/svg">
<path d="M9.5 10C9.5 10.3978 9.34196 10.7794 9.06066 11.0607C8.77936 11.342 8.39782 11.5 8 11.5C7.60218 11.5 7.22064 11.342 6.93934 11.0607C6.65804 10.7794 6.5 10.3978 6.5 10C6.5 9.60218 6.65804 9.22064 6.93934 8.93934C7.22064 8.65804 7.60218 8.5 8 8.5C8.39782 8.5 8.77936 8.65804 9.06066 8.93934C9.34196 9.22064 9.5 9.60218 9.5 10ZM5.5 13.25C5.5 13.0511 5.57902 12.8603 5.71967 12.7197C5.86032 12.579 6.05109 12.5 6.25 12.5H9.75C9.94891 12.5 10.1397 12.579 10.2803 12.7197C10.421 12.8603 10.5 13.0511 10.5 13.25V13.5C10.5 13.5 10.5 15.5 8 15.5C5.5 15.5 5.5 13.5 5.5 13.5V13.25ZM12.5 10.125C12.5 9.78 12.78 9.5 13.125 9.5H17.875C17.9571 9.5 18.0383 9.51617 18.1142 9.54757C18.19 9.57898 18.2589 9.62502 18.3169 9.68306C18.375 9.74109 18.421 9.80999 18.4524 9.88582C18.4838 9.96165 18.5 10.0429 18.5 10.125C18.5 10.2071 18.4838 10.2883 18.4524 10.3642C18.421 10.44 18.375 10.5089 18.3169 10.5669C18.2589 10.625 18.19 10.671 18.1142 10.7024C18.0383 10.7338 17.9571 10.75 17.875 10.75H13.125C12.78 10.75 12.5 10.47 12.5 10.125ZM13.125 13C12.9592 13 12.8003 13.0658 12.6831 13.1831C12.5658 13.3003 12.5 13.4592 12.5 13.625C12.5 13.7908 12.5658 13.9497 12.6831 14.0669C12.8003 14.1842 12.9592 14.25 13.125 14.25H17.875C18.0408 14.25 18.1997 14.1842 18.3169 14.0669C18.4342 13.9497 18.5 13.7908 18.5 13.625C18.5 13.4592 18.4342 13.3003 18.3169 13.1831C18.1997 13.0658 18.0408 13 17.875 13H13.125ZM2 6.125C2 5.56141 2.22388 5.02091 2.6224 4.6224C3.02091 4.22388 3.56141 4 4.125 4H19.875C20.4386 4 20.9791 4.22388 21.3776 4.6224C21.7761 5.02091 22 5.56141 22 6.125V17.875C22 18.4386 21.7761 18.9791 21.3776 19.3776C20.9791 19.7761 20.4386 20 19.875 20H4.125C3.56141 20 3.02091 19.7761 2.6224 19.3776C2.22388 18.9791 2 18.4386 2 17.875V6.125ZM4.125 5.25C3.89294 5.25 3.67038 5.34219 3.50628 5.50628C3.34219 5.67038 3.25 5.89294 3.25 6.125V17.875C3.25 18.3585 3.642 18.75 4.125 18.75H19.875C20.1071 18.75 20.3296 18.6578 20.4937 18.4937C20.6578 18.3296 20.75 18.1071 20.75 17.875V6.125C20.75 5.89294 20.6578 5.67038 20.4937 5.50628C20.3296 5.34219 20.1071 5.25 19.875 5.25H4.125Z" fill="white"/>
</svg>
