<svg width="24" height="24" viewBox="0 0 24 24" fill="none" xmlns="http://www.w3.org/2000/svg">
<path d="M15.2144 15.4286C16.0424 15.4286 16.7144 16.1006 16.7144 16.9286V18.6446L16.7075 18.7372C16.4418 20.5603 14.8046 21.4363 12.0575 21.4363C9.32064 21.4363 7.65693 20.5706 7.29778 18.7689L7.28578 18.6429V16.9286C7.28578 16.1006 7.95778 15.4286 8.78578 15.4286H15.2144ZM15.6378 10.2857H20.7858C21.6138 10.2857 22.2858 10.9577 22.2858 11.7857V13.5017L22.2789 13.5943C22.0132 15.4174 20.3761 16.2934 17.6289 16.2934L17.4849 16.2917C17.3528 15.822 17.0782 15.4047 16.699 15.0976C16.3199 14.7904 15.8547 14.6084 15.3678 14.5766L15.2144 14.5714H14.4241C14.872 14.2103 15.2332 13.7533 15.4812 13.2341C15.7292 12.715 15.8577 12.1468 15.8572 11.5714C15.8572 11.1206 15.7801 10.6886 15.6378 10.2857ZM3.21436 10.2857H8.36235C8.22007 10.6886 8.14293 11.1206 8.14293 11.5714C8.14293 12.7114 8.63835 13.7374 9.42521 14.4429L9.57607 14.5714H8.78578C7.70407 14.5714 6.79207 15.3 6.51435 16.2943L6.48607 16.2934C3.74921 16.2934 2.0855 15.4277 1.72636 13.626L1.71436 13.5V11.7857C1.71436 10.9577 2.38636 10.2857 3.21436 10.2857ZM12.0001 8.57145C12.7957 8.57145 13.5588 8.88752 14.1214 9.45013C14.684 10.0127 15.0001 10.7758 15.0001 11.5714C15.0001 12.3671 14.684 13.1302 14.1214 13.6928C13.5588 14.2554 12.7957 14.5714 12.0001 14.5714C11.2044 14.5714 10.4414 14.2554 9.87875 13.6928C9.31614 13.1302 9.00007 12.3671 9.00007 11.5714C9.00007 10.7758 9.31614 10.0127 9.87875 9.45013C10.4414 8.88752 11.2044 8.57145 12.0001 8.57145ZM17.5715 3.42859C18.3671 3.42859 19.1302 3.74466 19.6928 4.30727C20.2554 4.86988 20.5715 5.63294 20.5715 6.42859C20.5715 7.22424 20.2554 7.9873 19.6928 8.54991C19.1302 9.11252 18.3671 9.42859 17.5715 9.42859C16.7758 9.42859 16.0128 9.11252 15.4502 8.54991C14.8876 7.9873 14.5715 7.22424 14.5715 6.42859C14.5715 5.63294 14.8876 4.86988 15.4502 4.30727C16.0128 3.74466 16.7758 3.42859 17.5715 3.42859V3.42859ZM6.42864 3.42859C7.22429 3.42859 7.98735 3.74466 8.54996 4.30727C9.11257 4.86988 9.42864 5.63294 9.42864 6.42859C9.42864 7.22424 9.11257 7.9873 8.54996 8.54991C7.98735 9.11252 7.22429 9.42859 6.42864 9.42859C5.63299 9.42859 4.86993 9.11252 4.30732 8.54991C3.74471 7.9873 3.42864 7.22424 3.42864 6.42859C3.42864 5.63294 3.74471 4.86988 4.30732 4.30727C4.86993 3.74466 5.63299 3.42859 6.42864 3.42859V3.42859Z" fill="white"/>
</svg>
