<svg width="28" height="22" viewBox="0 0 28 22" fill="none" xmlns="http://www.w3.org/2000/svg">
<g clip-path="url(#clip0)">
<path d="M9.8 11C10.9076 11 11.9903 10.6774 12.9112 10.0731C13.8321 9.46874 14.5499 8.60975 14.9737 7.60476C15.3976 6.59977 15.5085 5.4939 15.2924 4.42701C15.0763 3.36011 14.543 2.3801 13.7598 1.61092C12.9766 0.841726 11.9788 0.317902 10.8925 0.105683C9.80621 -0.106535 8.68024 0.00238305 7.65697 0.418665C6.63371 0.834947 5.75911 1.5399 5.14377 2.44437C4.52843 3.34884 4.2 4.41221 4.2 5.5C4.2 6.95869 4.79 8.35764 5.8402 9.38909C6.89041 10.4205 8.31479 11 9.8 11ZM14 13.75C14.0032 13.2907 14.1251 12.8398 14.3544 12.4395C14.1444 12.418 13.9388 12.375 13.72 12.375H12.9894C11.9894 12.8279 10.9012 13.0625 9.8 13.0625C8.69877 13.0625 7.61064 12.8279 6.61063 12.375H5.88C4.32063 12.3753 2.82523 12.9839 1.7226 14.0668C0.619958 15.1498 0.000347956 16.6185 0 18.15L0 19.9375C0 20.4845 0.221249 21.0091 0.615076 21.3959C1.0089 21.7827 1.54305 22 2.1 22H14.3894C14.1377 21.5837 14.0034 21.1091 14 20.625V13.75ZM26.6 12.375H25.2V8.9375C25.2 8.02582 24.8313 7.15148 24.1749 6.50682C23.5185 5.86217 22.6283 5.5 21.7 5.5C20.7717 5.5 19.8815 5.86217 19.2251 6.50682C18.5687 7.15148 18.2 8.02582 18.2 8.9375V12.375H16.8C16.4287 12.375 16.0726 12.5199 15.8101 12.7777C15.5475 13.0356 15.4 13.3853 15.4 13.75V20.625C15.4 20.9897 15.5475 21.3394 15.8101 21.5973C16.0726 21.8551 16.4287 22 16.8 22H26.6C26.9713 22 27.3274 21.8551 27.59 21.5973C27.8525 21.3394 28 20.9897 28 20.625V13.75C28 13.3853 27.8525 13.0356 27.59 12.7777C27.3274 12.5199 26.9713 12.375 26.6 12.375ZM21.7 18.5625C21.4231 18.5625 21.1524 18.4819 20.9222 18.3308C20.692 18.1797 20.5125 17.9649 20.4066 17.7137C20.3006 17.4624 20.2729 17.186 20.3269 16.9193C20.3809 16.6525 20.5143 16.4075 20.7101 16.2152C20.9058 16.0229 21.1553 15.892 21.4269 15.8389C21.6984 15.7859 21.9799 15.8131 22.2358 15.9172C22.4916 16.0212 22.7102 16.1975 22.8641 16.4236C23.0179 16.6497 23.1 16.9156 23.1 17.1875C23.1 17.5522 22.9525 17.9019 22.69 18.1598C22.4274 18.4176 22.0713 18.5625 21.7 18.5625ZM23.1 12.375H20.3V8.9375C20.3 8.57283 20.4475 8.22309 20.7101 7.96523C20.9726 7.70737 21.3287 7.5625 21.7 7.5625C22.0713 7.5625 22.4274 7.70737 22.69 7.96523C22.9525 8.22309 23.1 8.57283 23.1 8.9375V12.375Z" fill="white"/>
</g>
<defs>
<clipPath id="clip0">
<rect width="28" height="22" fill="white"/>
</clipPath>
</defs>
</svg>
