<svg width="28" height="24" viewBox="0 0 28 24" fill="none" xmlns="http://www.w3.org/2000/svg">
<g clip-path="url(#clip0)">
<path d="M9.09958 16.5C8.99502 16.5 8.89046 16.5164 8.79071 16.5511C8.22371 16.7484 7.6274 16.875 6.99958 16.875C6.37177 16.875 5.77546 16.7484 5.20802 16.5511C5.10827 16.5164 5.00415 16.5 4.89958 16.5C2.18446 16.5 -0.0148551 18.8662 -0.000417604 21.7791C0.0057074 23.01 0.95027 24 2.09958 24H11.8996C13.0489 24 13.9935 23.01 13.9996 21.7791C14.014 18.8662 11.8147 16.5 9.09958 16.5ZM6.99958 15C9.31921 15 11.1996 12.9853 11.1996 10.5C11.1996 8.01469 9.31921 6 6.99958 6C4.67996 6 2.79958 8.01469 2.79958 10.5C2.79958 12.9853 4.67996 15 6.99958 15ZM25.8996 0H9.09958C7.94152 0 6.99958 1.04297 6.99958 2.32453V4.5C8.02421 4.5 8.97271 4.81781 9.79958 5.33438V3H25.1996V16.5H22.3996V13.5H16.7996V16.5H13.4641C14.2997 17.2823 14.9131 18.3155 15.2005 19.5H25.8996C27.0576 19.5 27.9996 18.457 27.9996 17.1755V2.32453C27.9996 1.04297 27.0576 0 25.8996 0Z" fill="white"/>
</g>
<defs>
<clipPath id="clip0">
<rect width="28" height="24" fill="white"/>
</clipPath>
</defs>
</svg>
