<svg width="24" height="24" viewBox="0 0 24 24" fill="none" xmlns="http://www.w3.org/2000/svg">
<circle cx="12" cy="12" r="12" fill="#F6B201"/>
<path d="M11.6118 17.1333C11.0067 17.1333 10.4481 17.0296 9.93604 16.8223C9.42822 16.6107 9.02409 16.3018 8.72363 15.8955C8.42318 15.4893 8.2793 14.992 8.29199 14.4038L8.29834 14.3657H10.4692C10.4692 14.5604 10.5158 14.7402 10.6089 14.9053C10.702 15.0661 10.8332 15.1951 11.0024 15.2925C11.1759 15.3898 11.3791 15.4385 11.6118 15.4385C11.9757 15.4385 12.2635 15.3327 12.4751 15.1211C12.6909 14.9095 12.7988 14.6344 12.7988 14.2959C12.7988 13.9489 12.6825 13.6654 12.4497 13.4453C12.217 13.221 11.8784 13.1089 11.4341 13.1089H10.4883V11.4648H11.4976C11.7472 11.4648 11.9567 11.4204 12.126 11.3315C12.2995 11.2384 12.4307 11.1115 12.5195 10.9507C12.6084 10.7856 12.6528 10.5952 12.6528 10.3794C12.6528 10.0747 12.5618 9.82292 12.3799 9.62402C12.2021 9.42513 11.9461 9.32568 11.6118 9.32568C11.4214 9.32568 11.25 9.36377 11.0977 9.43994C10.9495 9.51611 10.8311 9.62191 10.7422 9.75732C10.6576 9.88851 10.6152 10.043 10.6152 10.2207H8.45068L8.43799 10.1826C8.42106 9.6748 8.5459 9.22835 8.8125 8.84326C9.08333 8.45817 9.45996 8.15983 9.94238 7.94824C10.4248 7.73242 10.9728 7.62451 11.5864 7.62451C12.5767 7.62451 13.3722 7.85303 13.9731 8.31006C14.5783 8.76286 14.8809 9.40397 14.8809 10.2334C14.8809 10.6947 14.7581 11.0903 14.5127 11.4204C14.2715 11.7463 13.9097 12.0256 13.4272 12.2583C13.9139 12.4403 14.3011 12.7153 14.5889 13.0835C14.8809 13.4517 15.0269 13.8918 15.0269 14.4038C15.0269 14.9666 14.8787 15.4533 14.5825 15.8638C14.2863 16.27 13.88 16.5832 13.3638 16.8032C12.8517 17.0233 12.2677 17.1333 11.6118 17.1333Z" fill="white"/>
</svg>
