<svg width="24" height="24" viewBox="0 0 24 24" fill="none" xmlns="http://www.w3.org/2000/svg">
<circle cx="12" cy="12" r="12" fill="#D96A4D"/>
<path d="M8.4126 17V15.5718L11.3896 12.436C11.6562 12.1313 11.8678 11.8626 12.0244 11.6299C12.181 11.3971 12.2931 11.1834 12.3608 10.9888C12.4328 10.7941 12.4688 10.6058 12.4688 10.4238C12.4688 10.1234 12.3883 9.86947 12.2275 9.66211C12.0667 9.45052 11.8255 9.34473 11.5039 9.34473C11.1527 9.34473 10.8924 9.46956 10.7231 9.71924C10.5539 9.96468 10.4692 10.2969 10.4692 10.7158H8.29199L8.2793 10.6777C8.2666 10.1064 8.38932 9.59017 8.64746 9.12891C8.90983 8.66764 9.28646 8.3016 9.77734 8.03076C10.2682 7.75993 10.8459 7.62451 11.5103 7.62451C12.1746 7.62451 12.7438 7.74089 13.2178 7.97363C13.696 8.20215 14.062 8.52588 14.3159 8.94482C14.5741 9.35954 14.7031 9.84619 14.7031 10.4048C14.7031 10.7856 14.6375 11.1369 14.5063 11.4585C14.3794 11.7759 14.1678 12.1165 13.8716 12.4805C13.5796 12.8444 13.1882 13.2845 12.6973 13.8008L11.3008 15.2798L11.3135 15.3115H13.1479L13.2432 14.5435H14.9126V17H8.4126Z" fill="white"/>
</svg>
