<svg width="32" height="32" viewBox="0 0 32 32" fill="none" xmlns="http://www.w3.org/2000/svg">
<path d="M20 14.667H29.3333V17.3337H20V14.667ZM21.3333 20.0003H29.3333V22.667H21.3333V20.0003ZM18.6666 9.33366H29.3333V12.0003H18.6666V9.33366ZM5.33329 25.3337H18.6666V24.0003C18.6666 20.3243 15.676 17.3337 12 17.3337H9.33329C5.65729 17.3337 2.66663 20.3243 2.66663 24.0003V25.3337H5.33329ZM10.6666 16.0003C13.3266 16.0003 15.3333 13.9937 15.3333 11.3337C15.3333 8.67366 13.3266 6.66699 10.6666 6.66699C8.00663 6.66699 5.99996 8.67366 5.99996 11.3337C5.99996 13.9937 8.00663 16.0003 10.6666 16.0003Z" fill="white"/>
</svg>
